<!DOCTYPE svg PUBLIC "-//W3C//DTD SVG 20010904//EN" "http://www.w3.org/TR/2001/REC-SVG-20010904/DTD/svg10.dtd">
<svg version="1.0" xmlns="http://www.w3.org/2000/svg" width="120px" height="120px" viewBox="0 0 1200 1200" preserveAspectRatio="xMidYMid meet">
<g id="layer101" fill="#030303" stroke="none">
 <path d="M400 1128 l0 -73 -73 -1 c-129 -1 -239 -70 -297 -186 -26 -54 -30 -71 -30 -148 0 -113 19 -166 83 -236 48 -53 128 -104 162 -104 12 0 15 -6 10 -20 -9 -28 11 -126 37 -179 29 -61 97 -127 161 -157 44 -20 67 -24 147 -24 80 0 103 4 147 24 64 30 132 96 161 157 24 50 46 152 39 180 -3 12 0 19 9 19 33 0 114 52 161 104 64 70 83 123 83 236 0 77 -4 94 -30 148 -59 116 -170 186 -297 187 l-73 0 0 73 0 72 -200 0 -200 0 0 -72z"/>
 </g>
<g id="layer102" fill="#717171" stroke="none">
 <path d="M484 1116 c-3 -8 8 -32 25 -54 36 -45 51 -89 51 -153 l0 -46 -45 43 c-128 124 -344 79 -419 -86 -30 -67 -28 -160 6 -226 44 -85 132 -143 215 -144 42 0 42 0 32 -27 -19 -48 -13 -145 11 -197 41 -85 149 -156 240 -156 91 0 199 71 240 157 25 53 30 147 11 196 -10 27 -10 27 32 27 114 1 226 108 243 234 16 114 -72 246 -185 280 -68 20 -94 20 -160 1 -34 -11 -67 -30 -96 -59 l-45 -43 0 46 c0 64 15 108 51 153 48 61 38 68 -91 68 -87 0 -112 -3 -116 -14z"/>
 </g>

</svg>