<!DOCTYPE svg PUBLIC "-//W3C//DTD SVG 20010904//EN" "http://www.w3.org/TR/2001/REC-SVG-20010904/DTD/svg10.dtd">
<svg version="1.0" xmlns="http://www.w3.org/2000/svg" width="120px" height="120px" viewBox="0 0 1200 1200" preserveAspectRatio="xMidYMid meet">
<g id="layer101" fill="#020100" stroke="none">
 <path d="M324 878 c-320 -323 -324 -328 -324 -478 0 -88 3 -102 30 -158 36 -72 92 -125 169 -161 46 -21 71 -26 136 -26 93 0 153 19 221 71 l45 35 31 -26 c17 -14 54 -38 82 -53 44 -22 64 -26 141 -27 77 0 98 4 146 26 77 37 133 89 169 161 27 55 30 70 30 157 0 153 -3 158 -323 478 -149 150 -274 273 -277 273 -3 0 -128 -123 -276 -272z"/>
 </g>
<g id="layer102" fill="#f03a17" stroke="none">
 <path d="M358 793 c-264 -265 -278 -285 -278 -393 0 -153 110 -264 260 -264 80 0 134 25 208 97 l52 51 53 -51 c73 -72 127 -97 207 -97 150 0 260 111 260 264 0 108 -14 128 -278 393 -130 130 -239 237 -242 237 -3 0 -112 -107 -242 -237z"/>
 </g>

</svg>