<!DOCTYPE svg PUBLIC "-//W3C//DTD SVG 20010904//EN" "http://www.w3.org/TR/2001/REC-SVG-20010904/DTD/svg10.dtd">
<svg version="1.0" xmlns="http://www.w3.org/2000/svg" width="120px" height="120px" viewBox="0 0 1200 1200" preserveAspectRatio="xMidYMid meet">
<g id="layer101" fill="#030303" stroke="none">
 <path d="M400 1131 l0 -68 -66 -11 c-126 -21 -214 -83 -266 -190 -30 -60 -33 -75 -33 -157 0 -142 8 -154 310 -455 l255 -255 255 255 c302 301 310 313 310 455 0 77 -4 98 -27 148 -53 112 -154 184 -285 202 l-53 7 0 69 0 69 -200 0 -200 0 0 -69z"/>
 </g>
<g id="layer102" fill="#717171" stroke="none">
 <path d="M487 1123 c-13 -13 -7 -30 28 -75 24 -30 37 -60 41 -91 l7 -47 -61 31 c-49 26 -72 31 -124 31 -76 0 -122 -17 -178 -68 -81 -73 -109 -180 -75 -285 16 -49 39 -76 246 -284 l229 -230 229 230 c207 208 230 235 246 284 34 105 6 212 -75 285 -56 51 -102 68 -178 68 -51 0 -75 -5 -123 -30 l-59 -31 0 27 c0 31 30 95 61 134 40 48 23 58 -99 58 -60 0 -112 -3 -115 -7z"/>
 </g>

</svg>